<?xml version="1.0" encoding="UTF-8" standalone="no"?>
<!-- Created with Inkscape (http://www.inkscape.org/) -->

<svg
   xmlns:dc="http://purl.org/dc/elements/1.1/"
   xmlns:cc="http://creativecommons.org/ns#"
   xmlns:rdf="http://www.w3.org/1999/02/22-rdf-syntax-ns#"
   xmlns:svg="http://www.w3.org/2000/svg"
   xmlns="http://www.w3.org/2000/svg"
   xmlns:sodipodi="http://sodipodi.sourceforge.net/DTD/sodipodi-0.dtd"
   xmlns:inkscape="http://www.inkscape.org/namespaces/inkscape"
   version="1.1"
   id="svg4617"
   width="256"
   height="256"
   viewBox="0 0 256.00001 256.00001"
   sodipodi:docname="s1.svg"
   inkscape:version="0.92.3 (2405546, 2018-03-11)">
  <metadata
     id="metadata4623">
    <rdf:RDF>
      <cc:Work
         rdf:about="">
        <dc:format>image/svg+xml</dc:format>
        <dc:type
           rdf:resource="http://purl.org/dc/dcmitype/StillImage" />
        <dc:title />
      </cc:Work>
    </rdf:RDF>
  </metadata>
  <defs
     id="defs4621" />
  <sodipodi:namedview
     pagecolor="#ffffff"
     bordercolor="#666666"
     borderopacity="1"
     objecttolerance="10"
     gridtolerance="10"
     guidetolerance="10"
     inkscape:pageopacity="0"
     inkscape:pageshadow="2"
     inkscape:window-width="1866"
     inkscape:window-height="1052"
     id="namedview4619"
     showgrid="false"
     inkscape:zoom="1.5709648"
     inkscape:cx="154.55027"
     inkscape:cy="55.723816"
     inkscape:window-x="54"
     inkscape:window-y="0"
     inkscape:window-maximized="1"
     inkscape:current-layer="svg4617"
     inkscape:lockguides="false"
     showguides="true"
     inkscape:guide-bbox="true">
    <sodipodi:guide
       position="127.99297,365.84793"
       orientation="1,0"
       id="guide4816"
       inkscape:locked="false" />
  </sodipodi:namedview>
  <g
     id="g8481"
     transform="translate(-4.9594688e-6)">
    <path
       sodipodi:nodetypes="cccsssccssssccccccssssccsssscscc"
       inkscape:connector-curvature="0"
       d="m 128.06841,165.90802 c 0,0 8.47363,-0.049 14.74964,3.37543 6.27603,3.42437 7.16932,6.1996 10.92323,9.0879 5.60868,4.3154 22.95848,-1.52978 9.56869,-13.98635 -4.42533,-4.11688 -3.50205,-9.69119 -2.10566,-14.30375 1.19855,-3.95908 5.66549,-7.74209 8.31329,-9.21337 2.64779,-1.47127 5.00406,-1.53116 7.77141,-1.70306 4.59087,-0.28513 6.01068,-2.23325 7.01379,-4.90376 0.53507,-1.42454 -0.10658,-3.27426 -1.09405,-4.43207 -2.61656,-3.06806 -7.65079,-2.69455 -11.13951,-4.71648 -3.67465,-2.12969 -8.05741,-4.01135 -10.14339,-7.71101 -1.51415,-2.68545 -4.5653,-9.07079 0.39292,-13.50776 6.5365,-5.849351 0.35241,-9.215166 -1.37829,-9.978495 -3.06336,-1.35103 -10.99498,-0.72362 -15.07496,4.019157 -4.19851,4.880498 -17.85733,2.075368 -17.85733,2.075368 z m 0,0 c 0,0 -8.65366,-0.049 -14.92967,3.37543 -6.27602,3.42437 -7.16933,6.1996 -10.92325,9.0879 -5.608694,4.3154 -22.958473,-1.52978 -9.5687,-13.98635 4.425348,-4.11688 3.502045,-9.69119 2.105686,-14.30375 -1.19857,-3.95908 -5.665522,-7.74209 -8.313292,-9.21337 -2.647793,-1.47127 -5.004087,-1.53116 -7.771431,-1.70306 -4.590851,-0.28513 -6.010687,-2.23325 -7.013788,-4.90376 -0.53506,-1.42454 0.106576,-3.27426 1.094047,-4.43207 2.616555,-3.06806 7.650786,-2.69455 11.139497,-4.71648 3.674684,-2.12969 8.057446,-4.01135 10.143422,-7.71101 1.514126,-2.68545 4.565277,-9.07079 -0.392925,-13.50776 -6.536495,-5.849351 -0.352433,-9.215166 1.378299,-9.978495 3.063325,-1.35103 10.994955,-0.72362 15.074965,4.019157 4.1985,4.880498 17.85733,2.075368 17.85733,2.075368 z"
       style="fill:#445500;fill-opacity:1;stroke:#000000;stroke-width:0.27735117px;stroke-linecap:butt;stroke-linejoin:miter;stroke-opacity:1"
       id="path4776" />
    <path
       sodipodi:nodetypes="ssassazzas"
       inkscape:connector-curvature="0"
       id="path4839"
       d="m 174.45301,152.4106 c 0,0 33.27417,4.62334 46.51251,3.72099 3.55028,-0.242 3.74554,-7.01226 2.55431,-10.36549 -1.51201,-4.25621 -7.25077,-7.4929 -10.81591,-8.16275 -5.50808,-1.03491 -7.71422,6.59135 -17.54366,7.86517 -2.33005,0.30193 -11.9735,-0.25078 -17.53909,-2.18307 -3.47602,-1.20682 -4.81805,-3.51465 -9.4424,-5.71793 -4.62437,-2.20324 -6.49394,-1.76867 -8.44725,0.22052 -1.95332,1.98909 -0.80133,5.70155 0.69606,7.86665 2.95179,4.26794 6.86509,6.18315 14.02543,6.75598 z"
       style="fill:#88aa00;fill-opacity:1;stroke:#000000;stroke-width:0.27734846px;stroke-linecap:butt;stroke-linejoin:miter;stroke-opacity:1" />
    <path
       sodipodi:nodetypes="ssassacsas"
       inkscape:connector-curvature="0"
       id="path4841"
       d="m 159.45288,111.48973 c -1.12089,-3.01636 1.29424,-5.52053 4.06201,-7.16195 4.90956,-2.91157 7.86641,-6.220561 10.52745,-10.363952 4.67165,-7.273982 9.48279,-16.770884 8.85829,-24.375161 -0.62451,-7.604255 3.65589,-9.569542 5.21972,-10.525442 1.56387,-0.955922 7.34584,-1.994652 9.10532,0.483691 2.18706,3.080537 -3.16458,10.883138 -3.16458,10.883138 0,0 -19.16532,36.485276 -22.55869,41.047226 -1.73808,2.33661 -5.13629,3.91049 -8.01567,3.47491 -1.75209,-0.26503 -3.52741,-2.0996 -4.03385,-3.46246 z"
       style="fill:#88aa00;fill-opacity:1;stroke:#000000;stroke-width:0.24376759px;stroke-linecap:butt;stroke-linejoin:miter;stroke-opacity:1" />
    <path
       style="fill:#d4ff2a;fill-opacity:1;stroke:#000000;stroke-width:0.23643449px;stroke-linecap:butt;stroke-linejoin:miter;stroke-opacity:1"
       d="m 240.43164,92.239115 c -1.48038,-1.248 -0.93893,-19.79985 -26.5389,-17.941116 -9.1533,1.325858 -11.80104,3.862505 -17.41761,3.443093 -4.19024,-0.312903 -7.45917,-1.429713 -10.5921,-4.330031 -2.6525,-2.455556 -4.32377,-9.29588 -0.56532,-13.192409 4.624,-4.793902 14.73779,-6.426621 21.38803,-5.222142 11.17815,2.024595 40.26726,8.133162 39.13493,35.595059 -0.0624,1.514127 -3.92868,2.895569 -5.40905,1.647479 z"
       id="path4843"
       inkscape:connector-curvature="0"
       sodipodi:nodetypes="zcasassz" />
    <path
       style="fill:#d4ff2a;fill-opacity:1;stroke:#000000;stroke-width:0.24376759px;stroke-linecap:butt;stroke-linejoin:miter;stroke-opacity:1"
       d="m 162.50978,113.44737 c -1.12088,-3.01635 1.29423,-5.52055 4.06201,-7.16196 4.90953,-2.91156 7.86642,-6.22055 10.52745,-10.363942 4.67165,-7.273983 9.48279,-16.770884 8.8583,-24.375161 -0.62452,-7.604255 3.65589,-9.569543 5.21971,-10.525464 1.56388,-0.9559 7.34584,-1.994629 9.10532,0.483691 2.18709,3.080559 -3.1646,10.88316 -3.1646,10.88316 0,0 -19.1653,36.485276 -22.55867,41.047206 -1.73807,2.33663 -5.13629,3.91049 -8.01567,3.47493 -1.75208,-0.26503 -3.52741,-2.0996 -4.03385,-3.46246 z"
       id="path4845"
       inkscape:connector-curvature="0"
       sodipodi:nodetypes="ssassacsas" />
    <path
       style="fill:#d4ff2a;fill-opacity:1;stroke:#000000;stroke-width:0.19686945px;stroke-linecap:butt;stroke-linejoin:miter;stroke-opacity:1"
       d="m 249.2775,212.31534 c -0.91323,-1.38423 -4.29265,-37.66552 -29.57884,-45.85603 -19.29814,-6.25091 -22.4952,-6.24201 -24.81932,-14.44121 -1.25175,-4.41605 2.34191,-10.4911 7.38071,-13.34297 3.6923,-2.08976 9.64024,-2.50769 12.86,-0.56222 6.05744,3.66008 12.43318,7.99961 17.33754,13.41699 6.91401,7.63717 12.29193,17.29071 16.39784,26.1969 3.6478,7.91247 6.29307,26.64398 6.3372,35.5235 0.009,1.83171 -4.40259,1.35781 -5.91513,-0.93496 z"
       id="path4847"
       inkscape:connector-curvature="0"
       sodipodi:nodetypes="ssaasasss" />
    <path
       style="fill:#d4ff2a;fill-opacity:1;stroke:#000000;stroke-width:0.27734846px;stroke-linecap:butt;stroke-linejoin:miter;stroke-opacity:1"
       d="m 172.56076,156.54894 c 0,0 33.27418,4.62332 46.51251,3.72096 3.55027,-0.24196 3.74555,-7.01225 2.55427,-10.36545 -1.51197,-4.25622 -7.25075,-7.49293 -10.81588,-8.16277 -5.50806,-1.03492 -7.71422,6.59135 -17.54364,7.86516 -2.33007,0.30196 -11.9735,-0.2508 -17.53912,-2.18304 -3.47602,-1.20684 -4.81805,-3.51469 -9.44241,-5.71795 -4.62435,-2.20325 -6.49391,-1.76867 -8.44722,0.22051 -1.95331,1.98912 -0.80134,5.7016 0.69606,7.86669 2.95177,4.26793 6.86507,6.18316 14.02543,6.75598 z"
       id="path4849"
       inkscape:connector-curvature="0"
       sodipodi:nodetypes="ssassazzas" />
    <path
       style="fill:#88aa00;fill-opacity:1;stroke:#000000;stroke-width:0.27734846px;stroke-linecap:butt;stroke-linejoin:miter;stroke-opacity:1"
       d="m 83.75545,154.77401 c 0,0 -30.134596,14.8476 -42.985625,18.152 -3.446412,0.88617 -5.759768,-5.47961 -5.682873,-9.03732 0.09753,-4.51574 4.528162,-9.39218 7.702063,-11.14865 4.903627,-2.71371 9.395017,3.8326 19.12666,1.95232 2.306864,-0.44574 11.287845,-4.00152 15.964024,-7.58523 2.92054,-2.23824 3.46918,-4.8509 7.166649,-8.39604 3.69747,-3.54508 5.608867,-3.72017 8.088392,-2.44581 2.479546,1.27433 2.552811,5.16073 1.811823,7.68675 -1.460704,4.97942 -4.573683,8.02757 -11.191113,10.82198 z"
       id="path4660"
       inkscape:connector-curvature="0"
       sodipodi:nodetypes="ssassazzas" />
    <path
       style="fill:#88aa00;fill-opacity:1;stroke:#000000;stroke-width:0.24376759px;stroke-linecap:butt;stroke-linejoin:miter;stroke-opacity:1"
       d="m 97.891362,108.07704 c 0.216049,-3.21061 -2.81187,-4.92389 -5.932317,-5.70973 -5.535156,-1.39388 -9.311487,-3.724494 -13.041709,-6.939209 -6.548625,-5.643605 -13.863688,-13.378515 -15.429185,-20.84605 -1.565497,-7.467535 -6.228206,-8.133341 -7.999433,-8.604635 -1.771249,-0.471316 -7.609722,0.178369 -8.591117,3.055075 -1.21988,3.5756 6.131077,9.532419 6.131077,9.532419 0,0 28.756557,29.52197 33.307922,32.9295 2.331211,1.74534 6.036818,2.28699 8.673172,1.04994 1.604181,-0.75271 2.783978,-3.01668 2.88159,-4.46731 z"
       id="path4662"
       inkscape:connector-curvature="0"
       sodipodi:nodetypes="ssassacsas" />
    <path
       sodipodi:nodetypes="zcasassz"
       inkscape:connector-curvature="0"
       id="path4650"
       d="m 14.782654,112.66923 c 1.063994,-1.61771 -4.734977,-19.248267 20.33532,-24.752186 9.152129,-1.334042 12.412312,0.344184 17.677225,-1.656376 3.927906,-1.492522 6.743827,-3.493504 8.921751,-7.165512 C 63.560881,75.986258 63.216295,68.953161 58.504309,66.287421 52.707161,63.007757 42.54694,64.320974 36.514522,67.368334 26.374825,72.4905 0.22720576,86.625276 9.1284053,112.62923 c 0.4907656,1.43375 4.5903067,1.65771 5.6542487,0.0399 z"
       style="fill:#d4ff2a;fill-opacity:1;stroke:#000000;stroke-width:0.23643449px;stroke-linecap:butt;stroke-linejoin:miter;stroke-opacity:1" />
    <path
       sodipodi:nodetypes="ssassacsas"
       inkscape:connector-curvature="0"
       id="path4648"
       d="m 95.518056,110.82372 c 0.216049,-3.21061 -2.811891,-4.92391 -5.93236,-5.70972 -5.535158,-1.39392 -9.311489,-3.72451 -13.041689,-6.939224 C 69.99536,92.531172 62.680319,84.796262 61.1148,77.328726 c -1.565496,-7.467534 -6.228203,-8.13334 -7.999409,-8.604634 -1.771261,-0.471317 -7.609744,0.178369 -8.591126,3.055075 -1.219895,3.575599 6.131086,9.532419 6.131086,9.532419 0,0 28.756556,29.521994 33.307921,32.929494 2.33121,1.74534 6.036795,2.287 8.673151,1.04995 1.604202,-0.75272 2.783999,-3.01666 2.881633,-4.46731 z"
       style="fill:#d4ff2a;fill-opacity:1;stroke:#000000;stroke-width:0.24376759px;stroke-linecap:butt;stroke-linejoin:miter;stroke-opacity:1" />
    <path
       sodipodi:nodetypes="ssaasasss"
       inkscape:connector-curvature="0"
       id="path4656"
       d="m 31.552136,235.16117 c 0.431866,-1.60112 -7.763767,-37.10582 13.666516,-52.82907 16.355336,-11.99981 19.393154,-12.99623 19.022325,-21.51039 -0.199772,-4.58568 -5.520708,-9.22331 -11.200533,-10.34687 -4.162017,-0.82331 -9.939855,0.64948 -12.384952,3.50837 -4.600026,5.37853 -9.288639,11.50211 -12.241682,18.18644 -4.16311,9.42329 -6.23423,20.27793 -7.332707,30.02329 -0.97591,8.65801 2.400488,27.27165 5.149567,35.715 0.567606,1.74156 4.606224,-0.0948 5.321466,-2.74677 z"
       style="fill:#d4ff2a;fill-opacity:1;stroke:#000000;stroke-width:0.19686945px;stroke-linecap:butt;stroke-linejoin:miter;stroke-opacity:1" />
    <path
       sodipodi:nodetypes="ssassazzas"
       inkscape:connector-curvature="0"
       id="path4652"
       d="m 86.852553,158.10783 c 0,0 -30.13463,14.8476 -42.985648,18.15199 -3.446389,0.8862 -5.759759,-5.47959 -5.68283,-9.03729 0.09753,-4.51576 4.528152,-9.3922 7.702032,-11.14866 4.903624,-2.71372 9.395006,3.83259 19.126649,1.95232 2.306898,-0.44573 11.287867,-4.00155 15.964045,-7.58522 2.920541,-2.23824 3.469158,-4.85094 7.166627,-8.39603 3.697471,-3.5451 5.60889,-3.72018 8.088414,-2.44584 2.479525,1.27436 2.552812,5.16074 1.811802,7.68675 -1.460682,4.97942 -4.573683,8.02759 -11.191091,10.82198 z"
       style="fill:#d4ff2a;fill-opacity:1;stroke:#000000;stroke-width:0.27734846px;stroke-linecap:butt;stroke-linejoin:miter;stroke-opacity:1" />
    <path
       sodipodi:nodetypes="cccccccccccccccccccccccccccc"
       inkscape:connector-curvature="0"
       id="path4778"
       d="m 128.06841,160.16226 c 8.54694,-0.0178 17.16328,3.00936 22.72002,9.76532 3.01786,4.29627 8.97589,5.22015 13.47867,2.82466 5.47854,-2.11003 4.53267,-9.16143 0.70734,-12.40524 -5.14904,-3.62964 -5.99921,-10.45586 -3.79029,-16.01137 2.52177,-6.35509 9.09151,-11.2582 16.08452,-10.91631 4.69963,0.50965 9.48985,-5.34965 5.9197,-9.33576 -3.56106,-3.59983 -9.34513,-2.77054 -13.26126,-5.90182 -4.88226,-2.2151 -9.1341,-6.22982 -10.0919,-11.70169 -2.67401,-6.28534 6.19016,-8.893087 5.17626,-14.572633 -2.82309,-5.686993 -10.68459,-5.042213 -15.5201,-2.536937 -3.40936,2.02707 -5.91517,5.804159 -10.39006,5.553439 -3.27317,1.381041 -9.80472,-1.990482 -11.11505,0.482264 -0.0392,21.585347 0.12151,43.170707 0.0821,64.756077 z m 0,0 c -8.54695,-0.0178 -17.34331,3.00936 -22.90003,9.76532 -3.0179,4.29627 -8.975934,5.22015 -13.478694,2.82466 -5.478546,-2.11003 -4.53268,-9.16143 -0.707364,-12.40524 5.149055,-3.62964 5.999204,-10.45586 3.790332,-16.01137 -2.52182,-6.35509 -9.091536,-11.2582 -16.084545,-10.91631 -4.699655,0.50965 -9.489855,-5.34965 -5.919719,-9.33576 3.561062,-3.59983 9.345132,-2.77054 13.261259,-5.90182 4.882283,-2.2151 9.134123,-6.22982 10.091917,-11.70169 2.674013,-6.28534 -6.19017,-8.893087 -5.176256,-14.572633 2.823062,-5.686993 10.68457,-5.042213 15.5201,-2.536937 3.40939,2.02707 5.91517,5.804159 10.39006,5.553439 3.27318,1.381041 9.80474,-1.990482 11.11507,0.482264 0.0392,21.585347 0.0586,43.170707 0.0979,64.756077 z"
       style="fill:#88aa00;fill-opacity:1;stroke:#000000;stroke-width:0.27734846px;stroke-linecap:butt;stroke-linejoin:miter;stroke-opacity:1" />
    <path
       sodipodi:nodetypes="csssscsccsssccccsssscsccssscsc"
       inkscape:connector-curvature="0"
       d="m 127.99297,155.29161 c 0.81181,0 8.46213,-0.0441 14.73807,3.38009 6.27595,3.42434 7.16926,6.19955 10.92312,9.08783 5.60865,4.31536 22.95828,-1.52976 9.56861,-13.98622 -4.42528,-4.11686 -3.50202,-9.69108 -2.10564,-14.30359 1.19855,-3.95905 5.66545,-7.74205 8.3132,-9.2133 2.64777,-1.47123 5.00402,-1.53116 7.77134,-1.70304 4.59083,-0.28515 6.01062,-2.23325 7.0137,-4.90371 0.53509,-1.42452 -0.10658,-3.27422 -1.09401,-4.43203 -2.61653,-3.06804 -7.65071,-2.69453 -11.1394,-4.71643 -3.67462,-2.12968 -8.05736,-4.01131 -10.14331,-7.71094 -1.51413,-2.68542 -4.56523,-9.070691 0.39292,-13.507631 6.53645,-5.849286 0.35244,-9.215079 -1.3783,-9.978386 -3.06327,-1.351031 -10.99483,-0.723641 -15.07479,4.019113 -4.19845,4.880454 -17.74878,5.168855 -17.74878,5.168855 m -0.0366,62.799389 c 0,0 -8.64214,-0.0441 -14.91808,3.38009 -6.27596,3.42434 -7.16926,6.19955 -10.92316,9.08783 -5.608625,4.31536 -22.958272,-1.52976 -9.568587,-13.98622 4.42528,-4.11686 3.502,-9.69108 2.105642,-14.30359 -1.198549,-3.95905 -5.665455,-7.74205 -8.313226,-9.2133 -2.647748,-1.47123 -5.004019,-1.53116 -7.771341,-1.70304 -4.590807,-0.28515 -6.010599,-2.23325 -7.013699,-4.90371 -0.535084,-1.42452 0.106576,-3.27422 1.094024,-4.43203 2.616534,-3.06804 7.65072,-2.69453 11.139409,-4.71643 3.674616,-2.12968 8.057333,-4.01131 10.14331,-7.71094 1.514126,-2.68542 4.565232,-9.070691 -0.392924,-13.507631 -6.536452,-5.849286 -0.352435,-9.215079 1.378276,-9.978386 3.063302,-1.351031 10.994846,-0.723641 15.074846,4.019113 4.19845,4.880454 18.00225,5.168855 18.00225,5.168855"
       style="fill:#d4ff2a;fill-opacity:1;stroke:#000000;stroke-width:0.27734846px;stroke-linecap:butt;stroke-linejoin:miter;stroke-opacity:1"
       id="path4792" />
    <path
       sodipodi:nodetypes="ccssssccccccsszccccccccscccsc"
       inkscape:connector-curvature="0"
       d="m 127.97847,138.30229 c 0,0 -5.02454,-0.0285 -8.66855,1.95987 -3.64401,1.9883 -4.16268,3.59966 -6.3423,5.27668 -3.25655,2.50563 -13.330319,-0.88823 -5.55585,-8.12083 2.56946,-2.39036 2.03341,-5.62696 1.22263,-8.30513 -0.69593,-2.29875 -3.28954,-4.49527 -4.82693,-5.3495 -1.53738,-0.85428 -2.90549,-0.88905 -4.51228,-0.98885 -2.665585,-0.16566 -3.489983,-1.2967 -4.072401,-2.84728 -0.310673,-0.8271 0.06199,-1.90112 0.635238,-2.57337 1.519232,-1.78139 4.442253,-1.56454 6.467893,-2.73849 2.13362,-1.23656 4.67837,-2.32909 5.88954,-4.47721 0.87915,-1.55925 2.65071,-5.26674 -0.22814,-7.84296 -3.79526,-3.396268 -0.20468,-5.350562 0.80025,-5.793764 1.77867,-0.784442 6.38397,-0.420148 8.75295,2.333641 2.43772,2.833743 7.29129,3.709483 10.48029,3.701553 3.18896,-0.007 7.87837,-0.86781 10.31609,-3.701553 2.36898,-2.753789 6.9743,-3.118083 8.75292,-2.333641 1.00491,0.443202 4.59553,2.397496 0.8003,5.793764 -2.8789,2.57622 -1.10732,6.28371 -0.22816,7.84296 1.21117,2.14812 3.7559,3.24065 5.88953,4.47721 2.02564,1.17395 4.94864,0.9571 6.46786,2.73849 0.57335,0.67225 0.94592,1.74627 0.63522,2.57337 -0.58242,1.55058 -1.40679,2.68171 -4.07235,2.84728 -1.60682,0.0999 -2.97493,0.13466 -4.51229,0.98885 -1.5374,0.85423 -4.13101,3.05075 -4.82691,5.3495 -0.8108,2.67817 -1.34687,5.91477 1.22257,8.30513 7.77447,7.2326 -2.29927,10.62646 -5.55579,8.12083 -2.17964,-1.67702 -2.6983,-3.28838 -6.3423,-5.27668 -3.64405,-1.98827 -8.66856,-1.95987 -8.66856,-1.95987"
       style="fill:#9acd32;fill-opacity:1;stroke:#000000;stroke-width:0.16103719px;stroke-linecap:butt;stroke-linejoin:miter;stroke-opacity:1"
       id="path4794" />
    <path
       sodipodi:nodetypes="cccccccccccccccccccccccccscccc"
       inkscape:connector-curvature="0"
       d="m 127.97847,126.39987 c 0,0 3.08041,-0.0178 5.31444,1.20153 2.23405,1.21895 2.55202,2.20687 3.88828,3.23498 1.99653,1.53614 8.17245,-0.54453 3.40615,-4.97864 -1.57528,-1.46548 -1.24661,-3.44974 -0.74952,-5.09167 0.42664,-1.40929 2.0167,-2.7559 2.95922,-3.27964 0.94252,-0.52373 1.78129,-0.54505 2.76635,-0.60623 1.63421,-0.10144 2.13962,-0.79496 2.49666,-1.74558 0.19041,-0.50708 -0.0377,-1.1655 -0.38942,-1.57767 -0.93141,-1.0921 -2.72342,-0.95916 -3.96529,-1.6789 -1.30804,-0.75809 -2.86814,-1.42788 -3.61069,-2.74484 -0.53899,-0.95592 -1.6251,-3.2289 0.1398,-4.8083 2.32675,-2.0822 0.12552,-3.2803 -0.49065,-3.55202 -1.09042,-0.48093 -3.91381,-0.25759 -5.36618,1.43069 -1.49451,1.73729 -6.22395,1.91216 -6.22395,1.91216 m -0.17524,22.28413 c 0,0 -3.08041,-0.0178 -5.31447,1.20153 -2.23403,1.21895 -2.55204,2.20687 -3.88828,3.23498 -1.99651,1.53614 -8.17245,-0.54453 -3.40613,-4.97864 1.57526,-1.46548 1.24662,-3.44974 0.74955,-5.09167 -0.42663,-1.40929 -2.01673,-2.7559 -2.95925,-3.27964 -0.94252,-0.52373 -1.78127,-0.54505 -2.76636,-0.60623 -1.63422,-0.10144 -2.13959,-0.79496 -2.49667,-1.74558 -0.19041,-0.50708 0.0379,-1.1655 0.38944,-1.57767 0.9314,-1.0921 2.72343,-0.95916 3.96527,-1.6789 1.30806,-0.75809 2.86819,-1.42788 3.61072,-2.74484 0.53899,-0.95592 1.62509,-3.2289 -0.1398,-4.8083 -2.32677,-2.0822 -0.12552,-3.2803 0.49062,-3.55202 1.09044,-0.48093 3.91384,-0.25759 5.36618,1.43069 1.49451,1.73729 6.48925,1.91216 6.48925,1.91216"
       style="fill:#ffff00;fill-opacity:1;stroke:#000000;stroke-width:0.09872754px;stroke-linecap:butt;stroke-linejoin:miter;stroke-opacity:1"
       id="path4796" />
  </g>
</svg>
