<?xml version="1.0" encoding="UTF-8" standalone="no"?>
<!-- Created with Inkscape (http://www.inkscape.org/) -->

<svg
   xmlns:dc="http://purl.org/dc/elements/1.1/"
   xmlns:cc="http://creativecommons.org/ns#"
   xmlns:rdf="http://www.w3.org/1999/02/22-rdf-syntax-ns#"
   xmlns:svg="http://www.w3.org/2000/svg"
   xmlns="http://www.w3.org/2000/svg"
   xmlns:sodipodi="http://sodipodi.sourceforge.net/DTD/sodipodi-0.dtd"
   xmlns:inkscape="http://www.inkscape.org/namespaces/inkscape"
   width="256"
   height="256"
   viewBox="0 0 67.733333 67.733333"
   version="1.1"
   id="svg8"
   sodipodi:docname="pow1.svg"
   inkscape:version="0.92.3 (2405546, 2018-03-11)"
   inkscape:export-filename="/home/rich/Prog/tests/stm32/layer2/img/s_pow1a.png"
   inkscape:export-xdpi="24"
   inkscape:export-ydpi="24">
  <defs
     id="defs2" />
  <sodipodi:namedview
     id="base"
     pagecolor="#ffffff"
     bordercolor="#666666"
     borderopacity="1.0"
     inkscape:pageopacity="0.0"
     inkscape:pageshadow="2"
     inkscape:zoom="11.68251"
     inkscape:cx="114.72428"
     inkscape:cy="202.08593"
     inkscape:document-units="px"
     inkscape:current-layer="layer1"
     showgrid="false"
     units="px"
     width="256px"
     inkscape:window-width="1866"
     inkscape:window-height="1052"
     inkscape:window-x="54"
     inkscape:window-y="0"
     inkscape:window-maximized="1" />
  <metadata
     id="metadata5">
    <rdf:RDF>
      <cc:Work
         rdf:about="">
        <dc:format>image/svg+xml</dc:format>
        <dc:type
           rdf:resource="http://purl.org/dc/dcmitype/StillImage" />
        <dc:title />
      </cc:Work>
    </rdf:RDF>
  </metadata>
  <g
     inkscape:label="Layer 1"
     inkscape:groupmode="layer"
     id="layer1"
     transform="translate(0,-229.26667)">
    <path
       style="fill:#98fb98;fill-opacity:1;stroke:#000000;stroke-width:0.29536566px;stroke-linecap:butt;stroke-linejoin:miter;stroke-opacity:1"
       d="m 25.322552,294.25214 c 0,0 1.679606,1.94238 8.014193,1.94238 6.334588,0 8.640757,-1.97364 8.640757,-1.97364 -0.03355,-27.32499 -0.0757,-22.82843 -0.0757,-61.56954 0,0 -1.082873,1.56976 -8.278813,1.56976 -7.19594,0 -8.278813,-1.58315 -8.278813,-1.58315 z"
       id="path4529"
       inkscape:connector-curvature="0"
       sodipodi:nodetypes="czcczcc" />
    <path
       style="opacity:1;fill:#636363;fill-opacity:1;stroke:#000000;stroke-width:0.28876185;stroke-linecap:round;stroke-linejoin:round;stroke-miterlimit:4;stroke-dasharray:none;stroke-opacity:1"
       d="m 41.916948,240.56582 c -9e-6,1.00655 -3.724545,1.66477 -8.299219,1.66477 -4.574675,0 -8.283182,-0.81597 -8.283191,-1.82252 0,-4.71538 -0.0054,-2.26443 0.01229,-7.86424 1.397466,1.27352 6.220988,1.4298 8.049331,1.4298 1.828343,0 6.610084,-0.036 8.50564,-1.40536 0.01558,5.1883 -0.0033,3.34555 0.01515,7.99755 z"
       id="ellipse4552"
       inkscape:connector-curvature="0"
       sodipodi:nodetypes="cscczccc" />
    <ellipse
       style="opacity:1;fill:#efefef;fill-opacity:1;stroke:#000000;stroke-width:0.28876185;stroke-linecap:round;stroke-linejoin:round;stroke-miterlimit:4;stroke-dasharray:none;stroke-opacity:1"
       id="path4531"
       ry="1.8225222"
       rx="8.2831907"
       cy="232.20888"
       cx="33.624062" />
    <path
       style="opacity:1;fill:#b8b8b8;fill-opacity:1;stroke:#000000;stroke-width:0.11225887;stroke-linecap:round;stroke-linejoin:round;stroke-miterlimit:4;stroke-dasharray:none;stroke-opacity:1"
       d="m 36.789657,232.46996 c -9e-6,0.39805 -1.417292,0.72073 -3.165597,0.72073 -1.748304,0 -3.165587,-0.32268 -3.165596,-0.72073 -9e-6,-0.19903 0.0041,-0.35097 0.0041,-1.72746 1.427309,4e-5 2.299408,0.18496 3.17357,0.18496 0.874161,0 1.257549,-0.15144 3.149319,-0.18553 0,1.37651 0.0041,1.529 0.0041,1.72803 z"
       id="ellipse4533"
       inkscape:connector-curvature="0"
       sodipodi:nodetypes="csccsccc" />
    <ellipse
       style="opacity:1;fill:#fafafa;fill-opacity:1;stroke:#000000;stroke-width:0.11225887;stroke-linecap:round;stroke-linejoin:round;stroke-miterlimit:4;stroke-dasharray:none;stroke-opacity:1"
       id="ellipse4535"
       ry="0.72073668"
       rx="3.165596"
       cy="230.69775"
       cx="33.624062" />
  </g>
</svg>
